<?xml version="1.0" standalone="no"?>
<!DOCTYPE svg PUBLIC "-//W3C//DTD SVG 20010904//EN"
 "http://www.w3.org/TR/2001/REC-SVG-20010904/DTD/svg10.dtd">
<svg version="1.0" xmlns="http://www.w3.org/2000/svg"
 width="757.000000pt" height="757.000000pt" viewBox="0 0 757.000000 757.000000"
 preserveAspectRatio="xMidYMid meet">
<metadata>
Created by potrace 1.14, written by Peter Selinger 2001-2017
</metadata>
<g transform="translate(0.000000,757.000000) scale(0.100000,-0.100000)"
fill="#000000" stroke="none">
<path d="M3630 7068 c-252 -339 -665 -875 -700 -908 -3 -3 -25 -30 -50 -60
-25 -30 -47 -57 -50 -60 -3 -3 -34 -41 -70 -85 -35 -44 -67 -82 -70 -85 -3 -3
-59 -68 -124 -145 -66 -77 -124 -144 -130 -150 -6 -5 -36 -39 -66 -75 -30 -35
-62 -71 -70 -80 -8 -9 -43 -47 -76 -85 -69 -78 -71 -80 -200 -221 -51 -54
-104 -112 -119 -129 -15 -16 -64 -68 -108 -115 -140 -149 -162 -174 -223 -245
-33 -38 -97 -117 -142 -175 -45 -58 -85 -109 -90 -115 -13 -16 -157 -236 -179
-275 -135 -227 -250 -507 -301 -735 -31 -135 -33 -156 -37 -340 -6 -244 28
-422 120 -622 134 -291 403 -544 725 -683 299 -128 641 -171 995 -125 63 8
200 33 227 41 9 3 25 7 36 9 127 24 414 140 582 236 38 21 71 39 74 39 4 0 3
-30 -8 -140 -12 -118 -65 -303 -128 -445 -69 -157 -229 -441 -440 -780 -43
-71 -158 -270 -158 -276 0 -3 1987 -3 2012 0 8 1 -56 108 -195 323 -272 420
-403 648 -480 833 -31 76 -83 238 -92 290 -4 22 -10 49 -12 60 -11 51 -15 137
-7 133 5 -2 65 -31 134 -64 138 -67 171 -81 280 -119 70 -25 234 -69 290 -78
14 -3 44 -8 68 -12 23 -4 54 -9 70 -12 55 -9 419 -11 472 -2 239 40 359 75
519 150 103 49 267 152 327 206 17 15 46 42 65 58 108 95 233 268 305 419 130
276 167 561 118 916 -3 25 -21 104 -39 175 -30 119 -50 179 -107 320 -32 79
-126 264 -169 334 -21 34 -39 65 -39 67 0 8 -184 270 -199 284 -4 3 -19 23
-35 45 -37 49 -129 157 -215 250 -35 39 -83 90 -106 115 -37 40 -409 461 -474
535 -57 66 -209 243 -251 294 -25 30 -52 62 -60 70 -93 100 -862 1058 -1080
1346 -28 37 -122 155 -124 155 -1 0 -89 -118 -196 -262z"/>
</g>
</svg>
